<svg xmlns="http://www.w3.org/2000/svg" width="1360" height="1360" viewBox="0 0 1360 1360" version="1.1"><path d="M 654 93.652 C 652.625 93.862, 646.100 94.745, 639.500 95.615 C 622.990 97.792, 601.281 101.466, 590.500 103.907 C 558.863 111.071, 549.641 116.851, 544.701 132.615 C 543.342 136.952, 541.916 142.075, 541.532 144 C 540.716 148.088, 530.318 188.926, 522.053 220.500 C 518.885 232.600, 515.764 244.750, 515.118 247.500 C 513.740 253.356, 511.496 255.571, 506.002 256.500 C 503.807 256.871, 501.757 257.585, 501.446 258.087 C 500.402 259.776, 497.100 259.020, 492.339 256 C 489.737 254.350, 487.039 253, 486.343 253 C 485.647 253, 484.273 252.148, 483.289 251.107 C 482.305 250.066, 468.900 241.580, 453.500 232.251 C 438.100 222.921, 419.425 211.552, 412 206.985 C 404.575 202.419, 397.150 197.966, 395.501 197.091 C 393.851 196.216, 392.252 195.167, 391.948 194.760 C 391.644 194.353, 388.615 192.891, 385.217 191.510 C 377.043 188.189, 364.859 188.016, 355.718 191.093 C 336.720 197.488, 298.837 222.653, 271.499 247.040 C 257.594 259.444, 233.383 284.382, 227.004 292.872 C 224.870 295.713, 221.148 300.391, 218.733 303.268 C 210.842 312.670, 188 346.296, 188 348.510 C 188 348.758, 186.485 351.332, 184.634 354.231 C 177.448 365.482, 176.554 368.408, 176.177 381.892 C 175.987 388.708, 176.102 395.733, 176.434 397.502 C 176.766 399.272, 181.450 408.095, 186.842 417.110 C 192.234 426.124, 200.861 440.700, 206.013 449.500 C 222.678 477.965, 234.184 497.415, 236.580 501.169 C 237.868 503.187, 239.203 505.960, 239.547 507.331 C 240.377 510.639, 235.426 521.485, 232.471 522.831 C 230.023 523.947, 201.788 531.139, 192.500 533.013 C 189.200 533.679, 185.600 534.719, 184.500 535.324 C 183.400 535.930, 182.158 536.328, 181.741 536.209 C 181.324 536.091, 179.299 536.400, 177.241 536.896 C 175.183 537.392, 159.226 541.196, 141.780 545.349 C 99.538 555.405, 98.097 555.916, 91.354 563.232 C 87.027 567.926, 86.169 569.945, 80.617 588.500 C 71.056 620.450, 66.552 655.905, 66.642 698.500 C 66.740 745.256, 71.640 783.077, 82.113 817.927 C 86.356 832.046, 89.432 837.738, 95.542 842.774 C 99.494 846.032, 104.741 847.629, 149 859.051 C 164.125 862.954, 181.450 867.437, 187.500 869.012 C 231.518 880.476, 229 879.617, 229 883.171 C 229 884.230, 229.900 886.959, 231 889.236 C 232.100 891.513, 233 893.773, 233 894.259 C 233 895.012, 222.849 912.028, 208.995 934.500 C 206.960 937.800, 202.229 945.675, 198.480 952 C 194.732 958.325, 188.590 968.350, 184.833 974.277 C 181.075 980.204, 178 985.220, 178 985.423 C 178 985.626, 175.370 990.001, 172.156 995.146 C 168.942 1000.291, 165.792 1006.030, 165.156 1007.899 C 163.664 1012.287, 163.655 1034.712, 165.144 1038.985 C 166.930 1044.108, 181.518 1069.403, 189.241 1080.768 C 222.701 1130.008, 269.575 1173.913, 322.188 1205.291 C 338.605 1215.082, 344.190 1217.239, 354.418 1217.734 C 368.374 1218.410, 372.915 1216.710, 398.730 1201.146 C 406.854 1196.248, 420.250 1188.305, 428.500 1183.493 C 455.719 1167.619, 472.435 1157.769, 477.137 1154.832 L 481.774 1151.936 486.536 1154.468 C 489.155 1155.861, 491.836 1157, 492.494 1157 C 495.910 1157, 498.403 1163.094, 501.932 1180.074 C 504.343 1191.677, 524.102 1271.983, 527.726 1284.911 C 530.154 1293.573, 530.807 1294.769, 535.932 1299.952 C 541.040 1305.118, 542.409 1305.887, 552.500 1309.260 C 571.203 1315.512, 589.518 1319.419, 622 1324.089 C 635.466 1326.025, 641.766 1326.320, 670 1326.338 C 694.691 1326.353, 705.984 1325.941, 717 1324.625 C 760.675 1319.405, 800.575 1310.256, 809.927 1303.316 C 818.547 1296.920, 819.720 1294.107, 829.042 1257.500 C 832.823 1242.650, 838.813 1219.250, 842.354 1205.500 C 845.894 1191.750, 849.579 1177.350, 850.544 1173.500 C 851.509 1169.650, 852.437 1165.951, 852.606 1165.280 C 852.776 1164.609, 854.171 1163.796, 855.707 1163.474 C 857.243 1163.152, 860.354 1162.047, 862.620 1161.020 C 866.107 1159.439, 867.106 1159.349, 869.120 1160.429 C 871.939 1161.941, 901.513 1179.940, 944.500 1206.304 C 961.550 1216.760, 977.750 1226.366, 980.500 1227.648 C 984.659 1229.588, 987.145 1229.982, 995.275 1229.990 C 1007.901 1230.003, 1012.078 1228.524, 1032.435 1216.837 C 1085.793 1186.202, 1130.849 1143.457, 1166.656 1089.500 C 1177.326 1073.421, 1177.970 1072.336, 1185.028 1058.507 L 1191.149 1046.514 1190.790 1034.007 L 1190.431 1021.500 1184.410 1011 C 1176.407 997.045, 1167.962 982.614, 1161.003 971 C 1142.328 939.835, 1128.674 916.464, 1127.500 913.654 C 1126.280 910.733, 1126.394 909.812, 1128.703 903.963 C 1130.107 900.408, 1131.547 897.173, 1131.904 896.774 C 1132.261 896.374, 1139.741 894.257, 1148.526 892.069 C 1182.135 883.698, 1219.156 874.685, 1235.302 870.943 C 1269.481 863.021, 1273.384 860.970, 1279.930 847.500 C 1284.620 837.850, 1292.082 807.187, 1296.039 781.312 C 1300.957 749.147, 1300.735 689.506, 1295.570 655.500 C 1291.014 625.505, 1284.614 598.787, 1279.473 588.304 C 1273.766 576.666, 1268.236 573.133, 1247.708 568.010 C 1237.728 565.519, 1208.124 557.827, 1186 551.975 C 1175.825 549.284, 1162.100 545.714, 1155.500 544.042 C 1139.760 540.053, 1138.398 539.437, 1136.991 535.664 C 1136.342 533.924, 1135.122 530.838, 1134.279 528.807 L 1132.748 525.114 1144.491 505.807 C 1150.951 495.188, 1157.259 484.925, 1158.509 483 C 1162.490 476.873, 1190.145 430.924, 1196.694 419.554 L 1203 408.609 1203 396.931 C 1203 383.699, 1202.897 383.371, 1192.810 364.630 C 1167.002 316.680, 1122.658 268.150, 1071 231.322 C 1059.787 223.328, 1037.153 209.459, 1029 205.587 C 1022.698 202.594, 1022.073 202.500, 1008.500 202.500 L 994.500 202.500 987.267 206.241 C 983.289 208.298, 967.539 217.452, 952.267 226.582 C 936.995 235.712, 919.100 246.366, 912.500 250.257 C 905.900 254.149, 897.222 259.283, 893.215 261.666 C 889.208 264.050, 885.521 266, 885.022 266 C 884.523 266, 880.941 264.824, 877.063 263.386 C 870.583 260.985, 869.931 260.478, 869.008 257.136 C 867.618 252.099, 845.015 159.573, 841.092 142.859 C 837.605 128.003, 834.930 122.561, 828.517 117.274 C 817.913 108.534, 778.210 98.795, 733.789 94.040 C 724.887 93.086, 659.800 92.771, 654 93.652 M 662 142.996 C 640.324 145.195, 629.090 147.076, 605.462 152.460 C 597.655 154.239, 592.870 156.734, 590.614 160.202 C 589.151 162.450, 584.557 179.550, 569.472 238.893 C 563.744 261.427, 562 269.894, 562 275.175 C 562 287.893, 559.175 291.220, 543.440 297.034 C 537.423 299.257, 527.191 303.138, 520.702 305.658 C 505.619 311.515, 497.601 314, 493.784 314 C 489.595 314, 478.581 307.753, 425.500 275.270 C 371.647 242.315, 372.329 242.692, 367.789 243.418 C 363.959 244.030, 344.429 254.568, 336.475 260.315 C 313.692 276.773, 310.125 279.829, 288.992 300.979 C 276.156 313.825, 269.080 321.860, 254.163 340.523 C 253.229 341.692, 232.758 372.761, 231.498 374.923 C 229.889 377.683, 229.129 384.542, 230.044 388.051 C 230.553 390.004, 239.239 405.754, 249.345 423.051 C 273.592 464.550, 280.882 476.322, 286.678 483.332 C 298.170 497.231, 298.106 497.123, 297.698 502.112 C 297.454 505.090, 294.833 512.178, 290.302 522.112 C 286.442 530.576, 282.264 539.975, 281.018 543 C 274.508 558.802, 271.741 563.075, 266.192 565.895 C 262.717 567.662, 249.176 571.169, 208 580.967 C 148.956 595.017, 133.326 599.319, 130.373 602.331 C 126.596 606.184, 120.319 636.375, 116.929 667 C 115.195 682.664, 114.888 689.746, 115.367 703 C 116.313 729.182, 119.032 752.576, 124.141 778.500 C 127.323 794.640, 129.719 801.024, 133.260 802.789 C 136.064 804.187, 145.978 807.016, 161.500 810.848 C 168.100 812.477, 185.200 816.793, 199.500 820.438 C 231.040 828.478, 240.959 830.639, 247.500 830.894 C 250.250 831.001, 254.300 831.563, 256.500 832.142 C 264.351 834.210, 264.720 834.841, 278.337 869.500 C 286.472 890.204, 288.058 895.397, 287.404 899.184 C 286.290 905.636, 285.754 906.669, 271.929 929 C 270.397 931.475, 266.433 938, 263.122 943.500 C 259.810 949, 252.812 960.475, 247.571 969 C 242.330 977.525, 237.020 986.249, 235.771 988.386 C 234.522 990.523, 233.050 993.017, 232.500 993.928 C 231.950 994.840, 229.489 998.941, 227.031 1003.043 C 224.573 1007.144, 222.253 1010.725, 221.876 1011.001 C 221.498 1011.276, 220.264 1014.247, 219.134 1017.603 C 216.417 1025.669, 217.118 1029.434, 223.286 1039.883 C 247.573 1081.028, 287.782 1122.197, 332 1151.191 C 346.653 1160.800, 353.030 1164, 357.524 1164 C 361.369 1164, 362.783 1163.298, 382 1151.843 C 402.367 1139.704, 413.532 1133.126, 416.093 1131.760 C 430.830 1123.899, 454.436 1108.610, 460.130 1103.239 C 467.738 1096.061, 470.264 1095.031, 477.476 1096.162 C 481.918 1096.858, 527.762 1116.333, 533.781 1120.080 C 538.840 1123.230, 540.782 1128.031, 546.486 1151.500 C 549.561 1164.150, 554.153 1183.050, 556.692 1193.500 C 568.679 1242.846, 572.959 1259.288, 574.381 1261.458 C 576.687 1264.978, 587.099 1267.944, 616.554 1273.470 C 650.500 1279.840, 705.956 1278.380, 748.108 1270.008 C 769.976 1265.665, 773.987 1263.989, 776.291 1258.230 C 777.140 1256.108, 781.469 1240.226, 785.911 1222.936 C 790.353 1205.646, 794.867 1188.350, 795.943 1184.500 C 799.259 1172.628, 804 1148.922, 804 1144.208 C 804 1133.233, 808.007 1128.081, 820.131 1123.464 C 824.184 1121.921, 836.500 1117.097, 847.500 1112.744 C 864.263 1106.111, 868.184 1104.904, 871.728 1105.290 C 876.112 1105.766, 885.145 1110.498, 905.500 1122.981 C 970.666 1162.944, 991.513 1175.208, 996.252 1176.366 C 999.654 1177.198, 1003.488 1175.324, 1019 1165.251 C 1041.775 1150.460, 1057.014 1138.041, 1077.551 1117.532 C 1096.279 1098.830, 1111.410 1080.492, 1124.197 1061 C 1134.413 1045.426, 1136.101 1041.794, 1136.132 1035.309 C 1136.158 1029.868, 1135.678 1028.634, 1129.203 1017.482 C 1106.687 978.697, 1095.009 958.836, 1091.870 953.988 C 1089.915 950.970, 1087.154 946.454, 1085.734 943.952 C 1084.315 941.451, 1080.630 936.952, 1077.546 933.955 C 1069.924 926.547, 1067.786 921.976, 1068.907 915.483 C 1069.786 910.393, 1090.563 862.826, 1094.041 857.943 C 1097.734 852.756, 1098.044 852.669, 1196.500 829.029 C 1231.213 820.694, 1235.161 819.436, 1236.921 816.147 C 1238.381 813.421, 1243.508 792.626, 1245.465 781.500 C 1248.552 763.946, 1250.027 742.968, 1249.895 718.500 C 1249.756 692.852, 1248.501 677.661, 1244.570 654.031 C 1240.291 628.312, 1237.464 619.274, 1232.950 616.888 C 1230.837 615.772, 1194.979 606.188, 1161 597.658 C 1129.407 589.728, 1127.380 589.285, 1119.098 588.504 C 1111.782 587.815, 1105.883 586.155, 1103.642 584.157 C 1101.041 581.838, 1097.626 574.798, 1091.980 560.119 C 1089.310 553.179, 1085.310 543.067, 1083.090 537.650 C 1077.889 524.959, 1077.490 522.584, 1079.537 516.484 C 1081.405 510.915, 1081.789 510.248, 1104.839 472.500 C 1130.299 430.805, 1145.144 405.888, 1147.138 401.500 C 1150.906 393.209, 1149.568 389.267, 1136.099 369 C 1110.527 330.520, 1076.082 296.600, 1034.222 268.676 C 1014.768 255.698, 1011.959 254.396, 1006.771 255.950 C 1002.341 257.278, 995.345 260.887, 981.500 268.990 C 976.550 271.887, 970.925 275.151, 969 276.245 C 938.554 293.537, 912.836 309.621, 907.267 314.853 C 899.946 321.730, 898.446 322.656, 893.271 323.488 C 888.579 324.243, 884.975 323.305, 875 318.733 C 871.425 317.094, 862.875 313.295, 856 310.291 C 836.549 301.790, 830.308 298.234, 827.845 294.249 C 825.503 290.460, 823.779 284.722, 818.908 264.500 C 817.186 257.350, 812.659 238.675, 808.848 223 C 805.037 207.325, 800.775 189.775, 799.378 184 C 793.957 161.604, 792.217 157.257, 787.706 154.842 C 783.512 152.598, 757.362 147.277, 736.500 144.422 C 723.531 142.648, 674.656 141.712, 662 142.996" stroke="none" fill="#0342a4" fill-rule="evenodd"/><path d="M 662 142.996 C 640.324 145.195, 629.090 147.076, 605.462 152.460 C 597.655 154.239, 592.870 156.734, 590.614 160.202 C 589.151 162.450, 584.557 179.550, 569.472 238.893 C 563.744 261.427, 562 269.894, 562 275.175 C 562 287.893, 559.175 291.220, 543.440 297.034 C 537.423 299.257, 527.191 303.138, 520.702 305.658 C 505.619 311.515, 497.601 314, 493.784 314 C 489.595 314, 478.581 307.753, 425.500 275.270 C 371.647 242.315, 372.329 242.692, 367.789 243.418 C 363.959 244.030, 344.429 254.568, 336.475 260.315 C 313.692 276.773, 310.125 279.829, 288.992 300.979 C 276.156 313.825, 269.080 321.860, 254.163 340.523 C 253.229 341.692, 232.758 372.761, 231.498 374.923 C 229.889 377.683, 229.129 384.542, 230.044 388.051 C 230.553 390.004, 239.239 405.754, 249.345 423.051 C 273.592 464.550, 280.882 476.322, 286.678 483.332 C 298.170 497.231, 298.106 497.123, 297.698 502.112 C 297.454 505.090, 294.833 512.178, 290.302 522.112 C 286.442 530.576, 282.264 539.975, 281.018 543 C 274.508 558.802, 271.741 563.075, 266.192 565.895 C 262.717 567.662, 249.176 571.169, 208 580.967 C 148.956 595.017, 133.326 599.319, 130.373 602.331 C 126.596 606.184, 120.319 636.375, 116.929 667 C 115.195 682.664, 114.888 689.746, 115.367 703 C 116.313 729.182, 119.032 752.576, 124.141 778.500 C 127.323 794.640, 129.719 801.024, 133.260 802.789 C 136.064 804.187, 145.978 807.016, 161.500 810.848 C 168.100 812.477, 185.200 816.793, 199.500 820.438 C 231.040 828.478, 240.959 830.639, 247.500 830.894 C 250.250 831.001, 254.300 831.563, 256.500 832.142 C 264.351 834.210, 264.720 834.841, 278.337 869.500 C 286.472 890.204, 288.058 895.397, 287.404 899.184 C 286.290 905.636, 285.754 906.669, 271.929 929 C 270.397 931.475, 266.433 938, 263.122 943.500 C 259.810 949, 252.812 960.475, 247.571 969 C 242.330 977.525, 237.020 986.249, 235.771 988.386 C 234.522 990.523, 233.050 993.017, 232.500 993.928 C 231.950 994.840, 229.489 998.941, 227.031 1003.043 C 224.573 1007.144, 222.253 1010.725, 221.876 1011.001 C 221.498 1011.276, 220.264 1014.247, 219.134 1017.603 C 216.417 1025.669, 217.118 1029.434, 223.286 1039.883 C 247.573 1081.028, 287.782 1122.197, 332 1151.191 C 346.653 1160.800, 353.030 1164, 357.524 1164 C 361.369 1164, 362.783 1163.298, 382 1151.843 C 402.367 1139.704, 413.532 1133.126, 416.093 1131.760 C 430.830 1123.899, 454.436 1108.610, 460.130 1103.239 C 467.738 1096.061, 470.264 1095.031, 477.476 1096.162 C 481.918 1096.858, 527.762 1116.333, 533.781 1120.080 C 538.840 1123.230, 540.782 1128.031, 546.486 1151.500 C 549.561 1164.150, 554.153 1183.050, 556.692 1193.500 C 568.679 1242.846, 572.959 1259.288, 574.381 1261.458 C 576.687 1264.978, 587.099 1267.944, 616.554 1273.470 C 650.500 1279.840, 705.956 1278.380, 748.108 1270.008 C 769.976 1265.665, 773.987 1263.989, 776.291 1258.230 C 777.140 1256.108, 781.469 1240.226, 785.911 1222.936 C 790.353 1205.646, 794.867 1188.350, 795.943 1184.500 C 799.259 1172.628, 804 1148.922, 804 1144.208 C 804 1133.233, 808.007 1128.081, 820.131 1123.464 C 824.184 1121.921, 836.500 1117.097, 847.500 1112.744 C 864.263 1106.111, 868.184 1104.904, 871.728 1105.290 C 876.112 1105.766, 885.145 1110.498, 905.500 1122.981 C 970.666 1162.944, 991.513 1175.208, 996.252 1176.366 C 999.654 1177.198, 1003.488 1175.324, 1019 1165.251 C 1041.775 1150.460, 1057.014 1138.041, 1077.551 1117.532 C 1096.279 1098.830, 1111.410 1080.492, 1124.197 1061 C 1134.413 1045.426, 1136.101 1041.794, 1136.132 1035.309 C 1136.158 1029.868, 1135.678 1028.634, 1129.203 1017.482 C 1106.687 978.697, 1095.009 958.836, 1091.870 953.988 C 1089.915 950.970, 1087.154 946.454, 1085.734 943.952 C 1084.315 941.451, 1080.630 936.952, 1077.546 933.955 C 1069.924 926.547, 1067.786 921.976, 1068.907 915.483 C 1069.786 910.393, 1090.563 862.826, 1094.041 857.943 C 1097.734 852.756, 1098.044 852.669, 1196.500 829.029 C 1231.213 820.694, 1235.161 819.436, 1236.921 816.147 C 1238.381 813.421, 1243.508 792.626, 1245.465 781.500 C 1248.552 763.946, 1250.027 742.968, 1249.895 718.500 C 1249.756 692.852, 1248.501 677.661, 1244.570 654.031 C 1240.291 628.312, 1237.464 619.274, 1232.950 616.888 C 1230.837 615.772, 1194.979 606.188, 1161 597.658 C 1129.407 589.728, 1127.380 589.285, 1119.098 588.504 C 1111.782 587.815, 1105.883 586.155, 1103.642 584.157 C 1101.041 581.838, 1097.626 574.798, 1091.980 560.119 C 1089.310 553.179, 1085.310 543.067, 1083.090 537.650 C 1077.889 524.959, 1077.490 522.584, 1079.537 516.484 C 1081.405 510.915, 1081.789 510.248, 1104.839 472.500 C 1130.299 430.805, 1145.144 405.888, 1147.138 401.500 C 1150.906 393.209, 1149.568 389.267, 1136.099 369 C 1110.527 330.520, 1076.082 296.600, 1034.222 268.676 C 1014.768 255.698, 1011.959 254.396, 1006.771 255.950 C 1002.341 257.278, 995.345 260.887, 981.500 268.990 C 976.550 271.887, 970.925 275.151, 969 276.245 C 938.554 293.537, 912.836 309.621, 907.267 314.853 C 899.946 321.730, 898.446 322.656, 893.271 323.488 C 888.579 324.243, 884.975 323.305, 875 318.733 C 871.425 317.094, 862.875 313.295, 856 310.291 C 836.549 301.790, 830.308 298.234, 827.845 294.249 C 825.503 290.460, 823.779 284.722, 818.908 264.500 C 817.186 257.350, 812.659 238.675, 808.848 223 C 805.037 207.325, 800.775 189.775, 799.378 184 C 793.957 161.604, 792.217 157.257, 787.706 154.842 C 783.512 152.598, 757.362 147.277, 736.500 144.422 C 723.531 142.648, 674.656 141.712, 662 142.996 M 674.329 185.777 C 673.685 186.185, 672.823 187.866, 672.412 189.510 C 672.001 191.155, 669.549 196.775, 666.963 202 C 664.377 207.225, 660.792 214.875, 658.997 219 C 654.820 228.598, 638.852 260.554, 629.515 278 C 625.541 285.425, 619.573 296.675, 616.253 303 C 612.933 309.325, 607.440 319.450, 604.046 325.500 C 593.938 343.516, 576.516 379.508, 570.645 394.500 C 564.719 409.633, 556.277 435.917, 555.607 441.323 C 555.379 443.163, 554.456 446.836, 553.556 449.486 C 552.519 452.542, 551.899 457.784, 551.862 463.825 C 551.814 471.699, 551.460 473.811, 549.816 476.035 C 547.947 478.562, 547.848 480.044, 548.164 500.612 C 548.375 514.334, 548.919 523.246, 549.624 524.500 C 550.242 525.600, 551.040 529.972, 551.397 534.216 C 553.305 556.851, 563.560 587.090, 584.051 630.500 C 595.923 655.651, 601.530 669.812, 619.487 720 C 628.423 744.975, 639.051 778.872, 640.495 787 C 640.837 788.925, 641.513 791.400, 641.998 792.500 C 643.110 795.022, 645.631 806.801, 647.563 818.500 C 648.380 823.450, 649.852 830.200, 650.833 833.500 L 652.618 839.500 678.059 839.781 C 692.052 839.936, 704.513 839.815, 705.750 839.512 C 707.510 839.082, 708 838.253, 708 835.703 C 708 833.911, 708.782 831.332, 709.738 829.973 C 711.138 827.982, 711.479 825.307, 711.488 816.240 C 711.498 806.488, 711.730 804.906, 713.215 804.433 C 715.231 803.792, 716.470 798.417, 715.559 794.267 C 715.088 792.123, 715.423 790.927, 716.858 789.629 C 717.945 788.645, 719.097 785.826, 719.491 783.190 C 721.546 769.409, 736.401 732.292, 756.988 689.500 C 760.956 681.250, 767.263 667.525, 771.002 659 C 774.741 650.475, 779.240 640.350, 781 636.500 C 787.231 622.866, 794.916 602.307, 799.317 587.500 C 806.778 562.395, 808.006 557.644, 808.003 553.904 C 808.001 551.926, 808.786 548.776, 809.747 546.904 C 811.292 543.893, 811.530 539.455, 811.804 508.500 C 812.252 457.817, 811.101 448.386, 800.332 414.500 C 794.894 397.390, 785.142 376.050, 767.334 342.295 C 760.430 329.208, 751.147 311.525, 746.704 303 C 742.261 294.475, 735.774 282.100, 732.290 275.500 C 728.806 268.900, 719.461 250.675, 711.523 235 C 694.976 202.324, 687.696 189.475, 684.644 187.566 C 681.913 185.857, 675.856 184.807, 674.329 185.777 M 936.016 557.410 C 933.334 558.867, 929.981 559.398, 921.886 559.648 C 913.959 559.893, 910.161 560.480, 906.886 561.966 C 904.474 563.061, 901.600 563.968, 900.500 563.982 C 898.683 564.005, 895.405 565.150, 877.875 571.888 C 871.895 574.187, 856.077 583.497, 844.500 591.532 C 835.578 597.724, 800.003 633.131, 792.760 643.027 C 771.303 672.344, 757.260 698.289, 743.301 734.404 C 738.482 746.872, 733.194 762.388, 731.510 769 C 730.739 772.025, 728.498 780.559, 726.529 787.964 C 724.561 795.369, 723.197 802.070, 723.498 802.855 C 723.799 803.640, 723.350 805.344, 722.499 806.642 C 721.586 808.036, 720.558 813.197, 719.988 819.251 C 719.457 824.888, 718.743 831.407, 718.400 833.738 C 717.580 839.315, 718.534 839.617, 730.756 837.651 C 736.115 836.789, 743.200 835.808, 746.500 835.471 C 755.443 834.556, 762.869 831.381, 763.669 828.129 C 764.025 826.683, 764.891 824.600, 765.592 823.500 C 766.294 822.400, 767.790 819.020, 768.917 815.988 C 770.044 812.957, 773.263 806.432, 776.070 801.488 C 783.085 789.137, 802.129 769.740, 817 759.799 C 833.171 748.989, 863.609 735, 870.958 735 C 872.125 735, 874.749 734.168, 876.790 733.151 C 879.065 732.018, 882.924 731.249, 886.765 731.164 C 890.566 731.081, 893.974 730.408, 895.429 729.455 C 898.788 727.254, 917.366 727.109, 921.545 729.251 C 923.170 730.084, 926.975 731.098, 930 731.505 C 939.716 732.811, 958.868 742.365, 967.860 750.393 C 971.340 753.500, 980.532 767.785, 984.110 775.648 C 986.144 780.117, 987.508 785.109, 988.031 790 C 988.473 794.125, 989.544 798.850, 990.411 800.500 C 991.575 802.715, 991.989 806.455, 991.994 814.792 C 991.999 824.706, 991.756 826.345, 990 828.230 C 988.545 829.793, 988 831.759, 988 835.453 C 988 838.507, 987.253 841.924, 986.125 844.029 C 983.844 848.284, 981.665 857.582, 982.147 861 C 982.487 863.410, 982.760 863.498, 989.715 863.438 C 993.683 863.404, 997.958 862.865, 999.215 862.241 C 1000.472 861.617, 1005.100 859.707, 1009.500 857.996 C 1030.527 849.818, 1059.811 830.487, 1073.698 815.617 C 1090.808 797.296, 1105.923 766.992, 1107.945 746.958 C 1108.364 742.811, 1109.332 738.311, 1110.096 736.958 C 1112.116 733.384, 1112.114 697.048, 1110.094 694.613 C 1109.286 693.640, 1108.376 689.209, 1107.957 684.209 C 1107.556 679.419, 1106.540 673.925, 1105.700 672 C 1104.860 670.075, 1102.961 664.675, 1101.480 660 C 1094.782 638.851, 1078.807 612.571, 1064.351 598.918 C 1047.665 583.159, 1017.040 565.306, 1003.850 563.648 C 1002.008 563.417, 998.827 562.501, 996.782 561.614 C 994.306 560.539, 990.170 560, 984.400 560 C 977.600 560, 975.065 559.586, 972.618 558.077 C 969.983 556.453, 967.178 556.104, 954.516 555.827 C 941.275 555.538, 939.123 555.722, 936.016 557.410 M 388 560 C 378.925 560.275, 370.899 560.888, 370.165 561.362 C 369.431 561.836, 366.281 562.806, 363.165 563.519 C 346.248 567.387, 326.601 577.775, 306.685 593.381 C 297.967 600.212, 292.673 605.398, 289.241 610.467 C 287.739 612.685, 284.408 617.065, 281.840 620.200 C 275.824 627.542, 267.171 643.023, 262.597 654.624 C 260.619 659.642, 259 664.203, 259 664.760 C 259 665.316, 258.328 667.060, 257.506 668.636 C 256.685 670.211, 256.010 673.793, 256.006 676.595 C 256.002 680.415, 255.499 682.143, 254 683.500 C 252.095 685.224, 252 686.580, 252 712.118 C 252 736.568, 252.176 739.372, 254 744 C 255.100 746.791, 256 750.554, 256 752.362 C 256 756.725, 263.983 779.497, 268.314 787.488 C 276.808 803.163, 301.518 829.676, 317.500 840.266 C 325.959 845.871, 353.446 860, 355.890 860 C 356.504 860, 358.686 860.900, 360.739 862 C 363.489 863.474, 366.381 864, 371.735 864 L 379 864 379 857.874 C 379 853.125, 378.170 849.697, 375.306 842.624 C 372.330 835.273, 371.556 831.964, 371.321 825.596 C 371.108 819.780, 370.569 817.182, 369.285 815.762 C 367.041 813.283, 367.147 806.600, 369.471 804.032 C 370.673 802.704, 371.352 799.753, 371.706 794.312 C 371.986 790.016, 372.588 786.039, 373.043 785.475 C 373.498 784.912, 374.628 782.212, 375.554 779.475 C 380.334 765.345, 390.475 752.814, 404.181 744.102 C 411.363 739.536, 422.765 735.055, 427.285 735.021 C 428.817 735.009, 431.067 734.358, 432.285 733.572 C 433.964 732.490, 439.128 732.079, 453.619 731.872 C 470.832 731.626, 473.020 731.783, 475.568 733.453 C 477.428 734.671, 480.559 735.384, 484.699 735.531 C 488.165 735.655, 491.563 736.216, 492.250 736.780 C 492.938 737.343, 495.525 738.330, 498 738.972 C 511.427 742.457, 544.725 758.608, 551.500 764.922 C 553.150 766.460, 556.975 769.517, 560 771.714 C 566.516 776.448, 571.862 782.117, 578.189 791 C 583.224 798.070, 590.455 811.887, 591.568 816.568 C 592.246 819.420, 595.237 826.974, 596.885 830 C 597.337 830.829, 599.447 831.645, 601.601 831.824 C 603.746 832.002, 606.175 832.746, 607 833.477 C 608.555 834.855, 627.790 837.259, 638.500 837.413 C 643.285 837.482, 644.461 837.196, 644.307 836 C 644.201 835.175, 643.156 830.225, 641.985 825 C 640.814 819.775, 638.956 811.225, 637.856 806 C 629.553 766.566, 614.969 722.836, 600.425 693.763 C 589.194 671.314, 569.382 640.738, 558.500 629.061 C 545.074 614.656, 528.039 598.702, 518.909 591.986 C 502.386 579.830, 472.228 566.178, 456 563.508 C 453.525 563.101, 450.600 562.257, 449.500 561.634 C 447.048 560.244, 411.294 559.294, 388 560 M 592.367 841.772 C 588.574 844.844, 588.172 847.118, 588.046 866.192 C 587.923 884.832, 587.923 884.832, 590.974 891.288 C 593.068 895.721, 595.195 898.549, 597.762 900.312 C 601.733 903.040, 615.420 908, 618.976 908 C 620.144 908, 622.450 908.698, 624.100 909.552 C 626.057 910.564, 631.254 911.312, 639.031 911.704 C 649.453 912.228, 651.036 912.537, 651.548 914.152 C 652.101 915.892, 653.791 916, 680.577 916 C 707.782 916, 709.094 915.913, 710.732 914 C 712.207 912.278, 713.698 911.997, 721.472 911.978 C 728.034 911.962, 731.595 911.458, 734.510 910.134 C 736.716 909.132, 740.316 907.976, 742.510 907.565 C 744.705 907.153, 747.625 906.227, 749 905.507 C 750.375 904.787, 753.351 903.703, 755.613 903.100 C 760.444 901.810, 764.534 898.075, 767.222 892.500 C 768.283 890.300, 769.792 887.375, 770.577 886 C 771.645 884.128, 771.982 879.846, 771.916 868.950 C 771.810 851.239, 770.839 842.144, 768.924 840.932 C 766.591 839.455, 746.996 839.908, 742.500 841.542 C 740.300 842.342, 733.775 843.280, 728 843.628 C 719.928 844.114, 717.037 844.676, 715.500 846.060 C 713.655 847.720, 710.995 847.850, 681.181 847.735 C 652.249 847.623, 648.769 847.437, 647.979 845.960 C 647.262 844.620, 644.715 844.183, 634.436 843.633 C 625.820 843.173, 621.102 842.484, 619.665 841.478 C 616.405 839.195, 595.268 839.422, 592.367 841.772 M 502.612 901.495 C 501.310 902.479, 500.179 902.631, 498.969 901.983 C 496.363 900.589, 490.343 907.648, 485.311 918 C 475.781 937.604, 476.597 933.804, 476.213 960.362 L 475.867 984.225 478.973 993.729 C 482.445 1004.356, 484.785 1009.365, 488.264 1013.616 C 489.561 1015.202, 491.849 1018.633, 493.348 1021.240 C 495.112 1024.309, 496.973 1026.206, 498.627 1026.621 C 500.032 1026.974, 503.147 1028.963, 505.549 1031.043 C 507.951 1033.122, 511.398 1035.138, 513.208 1035.523 C 515.019 1035.908, 517.322 1036.948, 518.327 1037.836 C 519.495 1038.867, 522.108 1039.479, 525.576 1039.532 C 529.728 1039.596, 531.331 1040.070, 532.417 1041.558 C 533.707 1043.322, 535.309 1043.522, 549.933 1043.744 C 564.942 1043.972, 566.145 1043.854, 567.737 1041.994 C 568.917 1040.616, 570.690 1039.999, 573.472 1039.996 C 575.779 1039.993, 579.603 1038.925, 582.419 1037.496 C 585.125 1036.123, 587.857 1035, 588.489 1035 C 589.122 1035, 591.409 1033.489, 593.570 1031.643 C 595.732 1029.796, 598.583 1027.943, 599.906 1027.526 C 601.229 1027.108, 606.343 1022.881, 611.271 1018.133 C 618.532 1011.136, 621.637 1007.132, 627.658 997.001 C 631.744 990.127, 635.323 983.377, 635.612 982.001 C 635.901 980.626, 637.006 977.651, 638.068 975.390 C 639.131 973.130, 640 970.016, 640 968.469 C 640 966.923, 640.707 964.877, 641.570 963.922 C 643.662 961.611, 645.051 921.768, 643.082 920.551 C 642.412 920.137, 639.082 919.554, 635.682 919.255 C 632.282 918.956, 628.612 918.102, 627.527 917.356 C 626.443 916.610, 623.583 916, 621.172 916 C 618.761 916, 614.249 915.355, 611.144 914.567 C 608.040 913.779, 603.475 912.992, 601 912.817 L 596.500 912.500 596.224 921.500 C 596.071 926.518, 595.331 931.827, 594.552 933.500 C 593.783 935.150, 592.831 937.798, 592.435 939.384 C 591.405 943.517, 574.948 960, 571.853 960 C 570.542 960, 567.791 960.900, 565.739 962 C 560.441 964.839, 544.298 964.878, 538.500 962.065 C 536.300 960.998, 532.949 959.555, 531.054 958.860 C 522.414 955.689, 509.444 939.701, 507.643 930 C 507.285 928.075, 506.236 925.072, 505.311 923.328 C 503.885 920.638, 503.812 919.572, 504.835 916.328 C 506.371 911.452, 506.815 900.815, 505.500 900.391 C 504.950 900.213, 503.650 900.710, 502.612 901.495 M 853.162 901.305 C 851.472 903.341, 851.937 913.987, 853.860 917.295 C 855.369 919.891, 855.361 920.307, 853.742 923.126 C 852.784 924.796, 851.986 927.588, 851.969 929.331 C 851.952 931.074, 850.872 934.675, 849.570 937.332 C 846.739 943.111, 834.673 956, 832.095 956 C 831.091 956, 829.126 956.900, 827.727 958 C 826.204 959.198, 823.670 960, 821.407 960 C 818.911 960, 816.848 960.734, 815.327 962.163 C 812.435 964.879, 807.197 964.826, 801.823 962.025 C 799.687 960.911, 796.857 960, 795.534 960 C 794.212 960, 792.088 959.597, 790.815 959.105 C 787.844 957.957, 778.782 949.989, 772.276 942.805 C 768.110 938.205, 767.200 936.540, 767.200 933.521 C 767.200 931.085, 766.442 929.035, 764.957 927.454 C 763.022 925.395, 762.790 924.326, 763.267 919.698 C 763.572 916.745, 763.524 913.850, 763.161 913.264 C 762.208 911.727, 749.957 911.945, 747 913.550 C 745.625 914.297, 742.475 915.355, 740 915.901 C 737.525 916.448, 733.700 917.353, 731.500 917.914 C 729.300 918.474, 724.800 919.285, 721.500 919.716 L 715.500 920.500 715.838 937 C 716.121 950.783, 716.574 954.877, 718.588 961.862 C 719.915 966.461, 721 970.684, 721 971.246 C 721 971.809, 722.962 976.409, 725.359 981.470 C 736.554 1005.104, 752.814 1022.152, 774.910 1033.426 C 778.666 1035.343, 781.185 1036.013, 783.154 1035.619 C 785.417 1035.167, 786.315 1035.551, 787.609 1037.526 L 789.230 1040 811.460 1040 C 832.420 1040, 833.793 1039.886, 835.500 1038 C 836.566 1036.822, 838.582 1035.999, 840.405 1035.998 C 845.809 1035.994, 854.965 1030.311, 864.158 1021.254 C 872.933 1012.609, 877.839 1004.848, 879.487 997 C 879.892 995.075, 880.960 992.665, 881.861 991.644 C 883.295 990.021, 883.500 986.336, 883.500 962.144 C 883.500 934.500, 883.500 934.500, 880.711 927.376 C 874.999 912.788, 865.590 900.842, 860.040 901.133 C 858.643 901.207, 856.785 900.961, 855.910 900.588 C 855.012 900.204, 853.816 900.517, 853.162 901.305 M 672.329 923.749 L 652.158 924.041 651.785 942.270 C 651.447 958.743, 651.160 961.229, 648.808 968.064 C 646.147 975.795, 637.199 994.454, 633.945 999.059 C 630.386 1004.094, 613.180 1034.747, 606.473 1048 C 598.697 1063.364, 590.407 1076.725, 586.886 1079.567 C 581.615 1083.820, 578.826 1091.684, 581.604 1094.461 C 582.817 1095.674, 585.665 1096, 595.036 1096 C 605.906 1096, 607.022 1095.828, 608 1094 C 608.796 1092.513, 610.094 1092, 613.064 1092 C 615.505 1092, 619.345 1090.845, 622.946 1089.027 C 627.756 1086.599, 638.749 1082.003, 639.750 1082.001 C 639.888 1082, 640 1085.955, 640 1090.789 C 640 1097.603, 640.449 1100.458, 642 1103.500 C 643.134 1105.725, 644 1109.397, 644 1111.984 C 644 1114.675, 645.256 1119.807, 647.062 1124.497 C 651.300 1135.504, 664.079 1160.231, 669.840 1168.574 L 674.622 1175.500 680.481 1175.500 L 686.339 1175.500 695.285 1157.500 C 705.564 1136.819, 710.454 1125.194, 711.514 1118.914 C 711.924 1116.492, 713.100 1112.940, 714.129 1111.020 C 715.221 1108.983, 716 1105.507, 716 1102.673 C 716 1099.330, 716.624 1097.023, 718 1095.273 C 719.453 1093.425, 720 1091.216, 720 1087.191 L 720 1081.651 722.250 1083.687 C 723.487 1084.806, 727.415 1087.180, 730.979 1088.962 C 735.970 1091.458, 738.314 1092.087, 741.191 1091.701 C 744.183 1091.300, 745.445 1091.683, 747.546 1093.630 C 750.065 1095.965, 750.647 1096.049, 762.334 1095.780 L 774.500 1095.500 774.815 1091.680 C 775.172 1087.341, 773.286 1083.194, 766.092 1072.500 C 757.136 1059.187, 751.113 1047.775, 739.703 1022.500 C 737.221 1017, 733.559 1009.575, 731.566 1006 C 720.334 985.852, 711 964.063, 711 957.990 C 711 957.030, 710.325 955.685, 709.500 955 C 708.296 954.001, 708 950.960, 708 939.578 C 708 929.884, 707.620 925.020, 706.800 924.200 C 706.058 923.458, 703.101 923.087, 699.050 923.228 C 695.447 923.354, 683.423 923.588, 672.329 923.749" stroke="none" fill="#4785c7" fill-rule="evenodd"/><path d="M 674.329 185.777 C 673.685 186.185, 672.823 187.866, 672.412 189.510 C 672.001 191.155, 669.549 196.775, 666.963 202 C 664.377 207.225, 660.792 214.875, 658.997 219 C 654.820 228.598, 638.852 260.554, 629.515 278 C 625.541 285.425, 619.573 296.675, 616.253 303 C 612.933 309.325, 607.440 319.450, 604.046 325.500 C 593.938 343.516, 576.516 379.508, 570.645 394.500 C 564.719 409.633, 556.277 435.917, 555.607 441.323 C 555.379 443.163, 554.456 446.836, 553.556 449.486 C 552.519 452.542, 551.899 457.784, 551.862 463.825 C 551.814 471.699, 551.460 473.811, 549.816 476.035 C 547.947 478.562, 547.848 480.044, 548.164 500.612 C 548.375 514.334, 548.919 523.246, 549.624 524.500 C 550.242 525.600, 551.040 529.972, 551.397 534.216 C 553.305 556.851, 563.560 587.090, 584.051 630.500 C 595.923 655.651, 601.530 669.812, 619.487 720 C 628.423 744.975, 639.051 778.872, 640.495 787 C 640.837 788.925, 641.513 791.400, 641.998 792.500 C 643.110 795.022, 645.631 806.801, 647.563 818.500 C 648.380 823.450, 649.852 830.200, 650.833 833.500 L 652.618 839.500 678.059 839.781 C 692.052 839.936, 704.513 839.815, 705.750 839.512 C 707.510 839.082, 708 838.253, 708 835.703 C 708 833.911, 708.782 831.332, 709.738 829.973 C 711.138 827.982, 711.479 825.307, 711.488 816.240 C 711.498 806.488, 711.730 804.906, 713.215 804.433 C 715.231 803.792, 716.470 798.417, 715.559 794.267 C 715.088 792.123, 715.423 790.927, 716.858 789.629 C 717.945 788.645, 719.097 785.826, 719.491 783.190 C 721.546 769.409, 736.401 732.292, 756.988 689.500 C 760.956 681.250, 767.263 667.525, 771.002 659 C 774.741 650.475, 779.240 640.350, 781 636.500 C 787.231 622.866, 794.916 602.307, 799.317 587.500 C 806.778 562.395, 808.006 557.644, 808.003 553.904 C 808.001 551.926, 808.786 548.776, 809.747 546.904 C 811.292 543.893, 811.530 539.455, 811.804 508.500 C 812.252 457.817, 811.101 448.386, 800.332 414.500 C 794.894 397.390, 785.142 376.050, 767.334 342.295 C 760.430 329.208, 751.147 311.525, 746.704 303 C 742.261 294.475, 735.774 282.100, 732.290 275.500 C 728.806 268.900, 719.461 250.675, 711.523 235 C 694.976 202.324, 687.696 189.475, 684.644 187.566 C 681.913 185.857, 675.856 184.807, 674.329 185.777 M 936.016 557.410 C 933.334 558.867, 929.981 559.398, 921.886 559.648 C 913.959 559.893, 910.161 560.480, 906.886 561.966 C 904.474 563.061, 901.600 563.968, 900.500 563.982 C 898.683 564.005, 895.405 565.150, 877.875 571.888 C 871.895 574.187, 856.077 583.497, 844.500 591.532 C 835.578 597.724, 800.003 633.131, 792.760 643.027 C 771.303 672.344, 757.260 698.289, 743.301 734.404 C 738.482 746.872, 733.194 762.388, 731.510 769 C 730.739 772.025, 728.498 780.559, 726.529 787.964 C 724.561 795.369, 723.197 802.070, 723.498 802.855 C 723.799 803.640, 723.350 805.344, 722.499 806.642 C 721.586 808.036, 720.558 813.197, 719.988 819.251 C 719.457 824.888, 718.743 831.407, 718.400 833.738 C 717.580 839.315, 718.534 839.617, 730.756 837.651 C 736.115 836.789, 743.200 835.808, 746.500 835.471 C 755.443 834.556, 762.869 831.381, 763.669 828.129 C 764.025 826.683, 764.891 824.600, 765.592 823.500 C 766.294 822.400, 767.790 819.020, 768.917 815.988 C 770.044 812.957, 773.263 806.432, 776.070 801.488 C 783.085 789.137, 802.129 769.740, 817 759.799 C 833.171 748.989, 863.609 735, 870.958 735 C 872.125 735, 874.749 734.168, 876.790 733.151 C 879.065 732.018, 882.924 731.249, 886.765 731.164 C 890.566 731.081, 893.974 730.408, 895.429 729.455 C 898.788 727.254, 917.366 727.109, 921.545 729.251 C 923.170 730.084, 926.975 731.098, 930 731.505 C 939.716 732.811, 958.868 742.365, 967.860 750.393 C 971.340 753.500, 980.532 767.785, 984.110 775.648 C 986.144 780.117, 987.508 785.109, 988.031 790 C 988.473 794.125, 989.544 798.850, 990.411 800.500 C 991.575 802.715, 991.989 806.455, 991.994 814.792 C 991.999 824.706, 991.756 826.345, 990 828.230 C 988.545 829.793, 988 831.759, 988 835.453 C 988 838.507, 987.253 841.924, 986.125 844.029 C 983.844 848.284, 981.665 857.582, 982.147 861 C 982.487 863.410, 982.760 863.498, 989.715 863.438 C 993.683 863.404, 997.958 862.865, 999.215 862.241 C 1000.472 861.617, 1005.100 859.707, 1009.500 857.996 C 1030.527 849.818, 1059.811 830.487, 1073.698 815.617 C 1090.808 797.296, 1105.923 766.992, 1107.945 746.958 C 1108.364 742.811, 1109.332 738.311, 1110.096 736.958 C 1112.116 733.384, 1112.114 697.048, 1110.094 694.613 C 1109.286 693.640, 1108.376 689.209, 1107.957 684.209 C 1107.556 679.419, 1106.540 673.925, 1105.700 672 C 1104.860 670.075, 1102.961 664.675, 1101.480 660 C 1094.782 638.851, 1078.807 612.571, 1064.351 598.918 C 1047.665 583.159, 1017.040 565.306, 1003.850 563.648 C 1002.008 563.417, 998.827 562.501, 996.782 561.614 C 994.306 560.539, 990.170 560, 984.400 560 C 977.600 560, 975.065 559.586, 972.618 558.077 C 969.983 556.453, 967.178 556.104, 954.516 555.827 C 941.275 555.538, 939.123 555.722, 936.016 557.410 M 388 560 C 378.925 560.275, 370.899 560.888, 370.165 561.362 C 369.431 561.836, 366.281 562.806, 363.165 563.519 C 346.248 567.387, 326.601 577.775, 306.685 593.381 C 297.967 600.212, 292.673 605.398, 289.241 610.467 C 287.739 612.685, 284.408 617.065, 281.840 620.200 C 275.824 627.542, 267.171 643.023, 262.597 654.624 C 260.619 659.642, 259 664.203, 259 664.760 C 259 665.316, 258.328 667.060, 257.506 668.636 C 256.685 670.211, 256.010 673.793, 256.006 676.595 C 256.002 680.415, 255.499 682.143, 254 683.500 C 252.095 685.224, 252 686.580, 252 712.118 C 252 736.568, 252.176 739.372, 254 744 C 255.100 746.791, 256 750.554, 256 752.362 C 256 756.725, 263.983 779.497, 268.314 787.488 C 276.808 803.163, 301.518 829.676, 317.500 840.266 C 325.959 845.871, 353.446 860, 355.890 860 C 356.504 860, 358.686 860.900, 360.739 862 C 363.489 863.474, 366.381 864, 371.735 864 L 379 864 379 857.874 C 379 853.125, 378.170 849.697, 375.306 842.624 C 372.330 835.273, 371.556 831.964, 371.321 825.596 C 371.108 819.780, 370.569 817.182, 369.285 815.762 C 367.041 813.283, 367.147 806.600, 369.471 804.032 C 370.673 802.704, 371.352 799.753, 371.706 794.312 C 371.986 790.016, 372.588 786.039, 373.043 785.475 C 373.498 784.912, 374.628 782.212, 375.554 779.475 C 380.334 765.345, 390.475 752.814, 404.181 744.102 C 411.363 739.536, 422.765 735.055, 427.285 735.021 C 428.817 735.009, 431.067 734.358, 432.285 733.572 C 433.964 732.490, 439.128 732.079, 453.619 731.872 C 470.832 731.626, 473.020 731.783, 475.568 733.453 C 477.428 734.671, 480.559 735.384, 484.699 735.531 C 488.165 735.655, 491.563 736.216, 492.250 736.780 C 492.938 737.343, 495.525 738.330, 498 738.972 C 511.427 742.457, 544.725 758.608, 551.500 764.922 C 553.150 766.460, 556.975 769.517, 560 771.714 C 566.516 776.448, 571.862 782.117, 578.189 791 C 583.224 798.070, 590.455 811.887, 591.568 816.568 C 592.246 819.420, 595.237 826.974, 596.885 830 C 597.337 830.829, 599.447 831.645, 601.601 831.824 C 603.746 832.002, 606.175 832.746, 607 833.477 C 608.555 834.855, 627.790 837.259, 638.500 837.413 C 643.285 837.482, 644.461 837.196, 644.307 836 C 644.201 835.175, 643.156 830.225, 641.985 825 C 640.814 819.775, 638.956 811.225, 637.856 806 C 629.553 766.566, 614.969 722.836, 600.425 693.763 C 589.194 671.314, 569.382 640.738, 558.500 629.061 C 545.074 614.656, 528.039 598.702, 518.909 591.986 C 502.386 579.830, 472.228 566.178, 456 563.508 C 453.525 563.101, 450.600 562.257, 449.500 561.634 C 447.048 560.244, 411.294 559.294, 388 560 M 592.367 841.772 C 588.574 844.844, 588.172 847.118, 588.046 866.192 C 587.923 884.832, 587.923 884.832, 590.974 891.288 C 593.068 895.721, 595.195 898.549, 597.762 900.312 C 601.733 903.040, 615.420 908, 618.976 908 C 620.144 908, 622.450 908.698, 624.100 909.552 C 626.057 910.564, 631.254 911.312, 639.031 911.704 C 649.453 912.228, 651.036 912.537, 651.548 914.152 C 652.101 915.892, 653.791 916, 680.577 916 C 707.782 916, 709.094 915.913, 710.732 914 C 712.207 912.278, 713.698 911.997, 721.472 911.978 C 728.034 911.962, 731.595 911.458, 734.510 910.134 C 736.716 909.132, 740.316 907.976, 742.510 907.565 C 744.705 907.153, 747.625 906.227, 749 905.507 C 750.375 904.787, 753.351 903.703, 755.613 903.100 C 760.444 901.810, 764.534 898.075, 767.222 892.500 C 768.283 890.300, 769.792 887.375, 770.577 886 C 771.645 884.128, 771.982 879.846, 771.916 868.950 C 771.810 851.239, 770.839 842.144, 768.924 840.932 C 766.591 839.455, 746.996 839.908, 742.500 841.542 C 740.300 842.342, 733.775 843.280, 728 843.628 C 719.928 844.114, 717.037 844.676, 715.500 846.060 C 713.655 847.720, 710.995 847.850, 681.181 847.735 C 652.249 847.623, 648.769 847.437, 647.979 845.960 C 647.262 844.620, 644.715 844.183, 634.436 843.633 C 625.820 843.173, 621.102 842.484, 619.665 841.478 C 616.405 839.195, 595.268 839.422, 592.367 841.772 M 502.612 901.495 C 501.310 902.479, 500.179 902.631, 498.969 901.983 C 496.363 900.589, 490.343 907.648, 485.311 918 C 475.781 937.604, 476.597 933.804, 476.213 960.362 L 475.867 984.225 478.973 993.729 C 482.445 1004.356, 484.785 1009.365, 488.264 1013.616 C 489.561 1015.202, 491.849 1018.633, 493.348 1021.240 C 495.112 1024.309, 496.973 1026.206, 498.627 1026.621 C 500.032 1026.974, 503.147 1028.963, 505.549 1031.043 C 507.951 1033.122, 511.398 1035.138, 513.208 1035.523 C 515.019 1035.908, 517.322 1036.948, 518.327 1037.836 C 519.495 1038.867, 522.108 1039.479, 525.576 1039.532 C 529.728 1039.596, 531.331 1040.070, 532.417 1041.558 C 533.707 1043.322, 535.309 1043.522, 549.933 1043.744 C 564.942 1043.972, 566.145 1043.854, 567.737 1041.994 C 568.917 1040.616, 570.690 1039.999, 573.472 1039.996 C 575.779 1039.993, 579.603 1038.925, 582.419 1037.496 C 585.125 1036.123, 587.857 1035, 588.489 1035 C 589.122 1035, 591.409 1033.489, 593.570 1031.643 C 595.732 1029.796, 598.583 1027.943, 599.906 1027.526 C 601.229 1027.108, 606.343 1022.881, 611.271 1018.133 C 618.532 1011.136, 621.637 1007.132, 627.658 997.001 C 631.744 990.127, 635.323 983.377, 635.612 982.001 C 635.901 980.626, 637.006 977.651, 638.068 975.390 C 639.131 973.130, 640 970.016, 640 968.469 C 640 966.923, 640.707 964.877, 641.570 963.922 C 643.662 961.611, 645.051 921.768, 643.082 920.551 C 642.412 920.137, 639.082 919.554, 635.682 919.255 C 632.282 918.956, 628.612 918.102, 627.527 917.356 C 626.443 916.610, 623.583 916, 621.172 916 C 618.761 916, 614.249 915.355, 611.144 914.567 C 608.040 913.779, 603.475 912.992, 601 912.817 L 596.500 912.500 596.224 921.500 C 596.071 926.518, 595.331 931.827, 594.552 933.500 C 593.783 935.150, 592.831 937.798, 592.435 939.384 C 591.405 943.517, 574.948 960, 571.853 960 C 570.542 960, 567.791 960.900, 565.739 962 C 560.441 964.839, 544.298 964.878, 538.500 962.065 C 536.300 960.998, 532.949 959.555, 531.054 958.860 C 522.414 955.689, 509.444 939.701, 507.643 930 C 507.285 928.075, 506.236 925.072, 505.311 923.328 C 503.885 920.638, 503.812 919.572, 504.835 916.328 C 506.371 911.452, 506.815 900.815, 505.500 900.391 C 504.950 900.213, 503.650 900.710, 502.612 901.495 M 853.162 901.305 C 851.472 903.341, 851.937 913.987, 853.860 917.295 C 855.369 919.891, 855.361 920.307, 853.742 923.126 C 852.784 924.796, 851.986 927.588, 851.969 929.331 C 851.952 931.074, 850.872 934.675, 849.570 937.332 C 846.739 943.111, 834.673 956, 832.095 956 C 831.091 956, 829.126 956.900, 827.727 958 C 826.204 959.198, 823.670 960, 821.407 960 C 818.911 960, 816.848 960.734, 815.327 962.163 C 812.435 964.879, 807.197 964.826, 801.823 962.025 C 799.687 960.911, 796.857 960, 795.534 960 C 794.212 960, 792.088 959.597, 790.815 959.105 C 787.844 957.957, 778.782 949.989, 772.276 942.805 C 768.110 938.205, 767.200 936.540, 767.200 933.521 C 767.200 931.085, 766.442 929.035, 764.957 927.454 C 763.022 925.395, 762.790 924.326, 763.267 919.698 C 763.572 916.745, 763.524 913.850, 763.161 913.264 C 762.208 911.727, 749.957 911.945, 747 913.550 C 745.625 914.297, 742.475 915.355, 740 915.901 C 737.525 916.448, 733.700 917.353, 731.500 917.914 C 729.300 918.474, 724.800 919.285, 721.500 919.716 L 715.500 920.500 715.838 937 C 716.121 950.783, 716.574 954.877, 718.588 961.862 C 719.915 966.461, 721 970.684, 721 971.246 C 721 971.809, 722.962 976.409, 725.359 981.470 C 736.554 1005.104, 752.814 1022.152, 774.910 1033.426 C 778.666 1035.343, 781.185 1036.013, 783.154 1035.619 C 785.417 1035.167, 786.315 1035.551, 787.609 1037.526 L 789.230 1040 811.460 1040 C 832.420 1040, 833.793 1039.886, 835.500 1038 C 836.566 1036.822, 838.582 1035.999, 840.405 1035.998 C 845.809 1035.994, 854.965 1030.311, 864.158 1021.254 C 872.933 1012.609, 877.839 1004.848, 879.487 997 C 879.892 995.075, 880.960 992.665, 881.861 991.644 C 883.295 990.021, 883.500 986.336, 883.500 962.144 C 883.500 934.500, 883.500 934.500, 880.711 927.376 C 874.999 912.788, 865.590 900.842, 860.040 901.133 C 858.643 901.207, 856.785 900.961, 855.910 900.588 C 855.012 900.204, 853.816 900.517, 853.162 901.305 M 672.329 923.749 L 652.158 924.041 651.785 942.270 C 651.447 958.743, 651.160 961.229, 648.808 968.064 C 646.147 975.795, 637.199 994.454, 633.945 999.059 C 630.386 1004.094, 613.180 1034.747, 606.473 1048 C 598.697 1063.364, 590.407 1076.725, 586.886 1079.567 C 581.615 1083.820, 578.826 1091.684, 581.604 1094.461 C 582.817 1095.674, 585.665 1096, 595.036 1096 C 605.906 1096, 607.022 1095.828, 608 1094 C 608.796 1092.513, 610.094 1092, 613.064 1092 C 615.505 1092, 619.345 1090.845, 622.946 1089.027 C 627.756 1086.599, 638.749 1082.003, 639.750 1082.001 C 639.888 1082, 640 1085.955, 640 1090.789 C 640 1097.603, 640.449 1100.458, 642 1103.500 C 643.134 1105.725, 644 1109.397, 644 1111.984 C 644 1114.675, 645.256 1119.807, 647.062 1124.497 C 651.300 1135.504, 664.079 1160.231, 669.840 1168.574 L 674.622 1175.500 680.481 1175.500 L 686.339 1175.500 695.285 1157.500 C 705.564 1136.819, 710.454 1125.194, 711.514 1118.914 C 711.924 1116.492, 713.100 1112.940, 714.129 1111.020 C 715.221 1108.983, 716 1105.507, 716 1102.673 C 716 1099.330, 716.624 1097.023, 718 1095.273 C 719.453 1093.425, 720 1091.216, 720 1087.191 L 720 1081.651 722.250 1083.687 C 723.487 1084.806, 727.415 1087.180, 730.979 1088.962 C 735.970 1091.458, 738.314 1092.087, 741.191 1091.701 C 744.183 1091.300, 745.445 1091.683, 747.546 1093.630 C 750.065 1095.965, 750.647 1096.049, 762.334 1095.780 L 774.500 1095.500 774.815 1091.680 C 775.172 1087.341, 773.286 1083.194, 766.092 1072.500 C 757.136 1059.187, 751.113 1047.775, 739.703 1022.500 C 737.221 1017, 733.559 1009.575, 731.566 1006 C 720.334 985.852, 711 964.063, 711 957.990 C 711 957.030, 710.325 955.685, 709.500 955 C 708.296 954.001, 708 950.960, 708 939.578 C 708 929.884, 707.620 925.020, 706.800 924.200 C 706.058 923.458, 703.101 923.087, 699.050 923.228 C 695.447 923.354, 683.423 923.588, 672.329 923.749" stroke="none" fill="#ffffff" fill-rule="evenodd"/></svg>